<?xml version="1.0" encoding="utf-8"?>
<!-- Generator: Adobe Illustrator 28.2.0, SVG Export Plug-In . SVG Version: 6.00 Build 0)  -->
<svg version="1.1" id="Layer_1" xmlns="http://www.w3.org/2000/svg" xmlns:xlink="http://www.w3.org/1999/xlink" x="0px" y="0px"
	 viewBox="0 0 1234.82 1050.48" style="enable-background:new 0 0 1234.82 1050.48;" xml:space="preserve">
<style type="text/css">
	.st0{fill:#FDFFF8;}
</style>
<g>
	<path class="st0" d="M107.39,625.68v88.42c0,29.66-24.03,53.69-53.69,53.69S0,743.76,0,714.1v-88.42
		c0-14.77,6.06-28.23,15.77-37.93c9.7-9.7,23.15-15.77,37.93-15.77C83.35,571.99,107.39,596.02,107.39,625.68z"/>
	<path class="st0" d="M295.26,565.7v208.38c0,29.66-24.03,53.69-53.69,53.69s-53.69-24.04-53.69-53.69V565.7
		c0-14.77,6.06-28.22,15.77-37.93c9.7-9.7,23.15-15.77,37.93-15.77C271.22,512.01,295.26,536.04,295.26,565.7z"/>
	<path class="st0" d="M483.24,469.34v401.1c0,29.66-24.03,53.69-53.69,53.69s-53.69-24.04-53.69-53.69v-401.1
		c0-14.77,5.95-28.22,15.77-37.93c9.7-9.7,23.04-15.77,37.93-15.77C459.2,415.65,483.24,439.68,483.24,469.34z"/>
	<path class="st0" d="M655.34,15.65c9.81,9.7,15.77,23.15,15.77,38.04v943.1c0,29.66-24.04,53.69-53.69,53.69
		c-29.66,0-53.69-24.04-53.69-53.69V53.69C563.72,24.03,587.75,0,617.41,0C632.19,0,645.64,5.95,655.34,15.65z"/>
	<path class="st0" d="M843.21,142c9.81,9.7,15.77,23.04,15.77,37.93v401.1c0,29.66-24.03,53.69-53.69,53.69
		s-53.69-24.04-53.69-53.69v-401.1c0-29.66,24.03-53.69,53.69-53.69C820.17,126.24,833.51,132.19,843.21,142z"/>
	<path class="st0" d="M1031.19,238.36c9.7,9.7,15.77,23.04,15.77,37.93v208.49c0,29.66-24.03,53.69-53.69,53.69
		s-53.69-24.03-53.69-53.69V276.29c0-29.66,24.03-53.69,53.69-53.69C1008.04,222.6,1021.49,228.55,1031.19,238.36z"/>
	<path class="st0" d="M1234.82,336.27v88.42c0,29.66-24.03,53.69-53.69,53.69s-53.69-24.03-53.69-53.69v-88.42
		c0-29.66,24.03-53.69,53.69-53.69c14.77,0,28.22,5.95,37.93,15.77C1228.76,308.04,1234.82,321.38,1234.82,336.27z"/>
</g>
</svg>
